PathFileType	4	(X/Y/Z)	c:\Git\powerlifing_model_clean\simulations\HC835B\Session1\HC835B_OGR_0001\marker_experimental.trc
DataRate	CameraRate	NumFrames	NumMarkers	Units	OrigDataRate	OrigDataStartFrame	OrigNumFrames
240.000000	240.000000	4	38	mm	240.000000	186	213
Frame#	Time	RPSI			LPSI			RASI			LASI			RTH1			RTH2			RTH3			RTH4			RSK1			RSK2			RSK3			RSK4			RCAL1			RCAL2			RCAL3			RST			RPT			RTN			RFMB			RSMB			RVMB			RFMH			RSMH			RVMH			RPM			LTH1			LTH2			LTH3			LTH4			LSK1			LSK2			LSK3			LSK4			LCAL1			LCAL2			LCAL3			LFMH			LVMH			
		X1	Y1	Z1	X2	Y2	Z2	X3	Y3	Z3	X4	Y4	Z4	X5	Y5	Z5	X6	Y6	Z6	X7	Y7	Z7	X8	Y8	Z8	X9	Y9	Z9	X10	Y10	Z10	X11	Y11	Z11	X12	Y12	Z12	X13	Y13	Z13	X14	Y14	Z14	X15	Y15	Z15	X16	Y16	Z16	X17	Y17	Z17	X18	Y18	Z18	X19	Y19	Z19	X20	Y20	Z20	X21	Y21	Z21	X22	Y22	Z22	X23	Y23	Z23	X24	Y24	Z24	X25	Y25	Z25	X26	Y26	Z26	X27	Y27	Z27	X28	Y28	Z28	X29	Y29	Z29	X30	Y30	Z30	X31	Y31	Z31	X32	Y32	Z32	X33	Y33	Z33	X34	Y34	Z34	X35	Y35	Z35	X36	Y36	Z36	X37	Y37	Z37	X38	Y38	Z38	

187	0.775	498.772186279297	1189.798217773438	-2245.734375	389.1950073242189	1191.096313476563	-2249.94482421875	566.5510864257814	1119.658569335938	-2432.221435546875	334.2083435058594	1103.259155273438	-2440.373779296875	633.7774047851564	831.9061279296877	-2419.37841796875	615.9639892578126	838.6347656250002	-2477.44091796875	620.2525634765626	761.1193237304689	-2463.950439453125	591.9794921875001	765.9352416992189	-2515.167724609375	552.9791259765626	318.0161132812501	-2503.56396484375	561.4808349609376	317.0529785156251	-2564.699462890625	547.1759033203126	267.1785583496094	-2532.48095703125	545.2374267578126	269.2769470214844	-2592.787841796875	471.6656799316407	110.8595046997071	-2520.2919921875	432.1153564453126	87.96627044677736	-2542.25439453125	491.5216369628907	66.74544525146486	-2533.34228515625	437.885223388672	121.7397994995117	-2606.649169921875	526.9705200195314	82.21020507812501	-2585.139404296875	463.6285400390626	146.345458984375	-2654.00244140625	467.0181579589845	133.9672088623047	-2687.623291015625	519.1454467773439	143.0781402587891	-2686.256103515625	536.2815551757814	63.84914779663087	-2633.575439453125	463.8869934082032	116.9425735473633	-2746.912353515625	520.8052368164064	119.1943511962891	-2751.396484375	558.7124633789064	68.1534881591797	-2709.800048828125	519.0155029296876	131.304931640625	-2805.610595703125	267.9918823242188	846.3106689453127	-2249.455322265625	279.6532287597657	812.6096801757815	-2298.753173828125	277.9586181640626	762.1008300781251	-2234.837890625	302.8154907226563	730.8778686523439	-2280.725830078125	316.4709167480469	493.1608276367189	-1873.46826171875	307.1392211914063	442.8557434082032	-1890.139038085938	317.7278747558594	446.520721435547	-1841.247680664063	323.8512573242188	394.3897094726564	-1862.740112304688	385.023162841797	414.9626464843751	-1718.59423828125	366.3840026855469	403.058563232422	-1675.954345703125	422.878387451172	401.9271240234376	-1692.333618164063	428.1260986328126	191.8196868896485	-1752.830810546875	328.1014709472657	214.4515838623047	-1692.844482421875	
188	0.7791666666666667	499.1150512695314	1188.019409179688	-2260.053466796875	389.3923339843751	1189.691772460938	-2264.376708984375	566.4799194335939	1117.279052734375	-2446.261474609375	334.1660156250001	1102.548583984375	-2454.938232421875	634.5720825195314	828.7449951171877	-2431.857177734375	615.9212646484376	835.1707153320315	-2489.685546875	620.1558227539064	757.8344116210939	-2475.57568359375	591.5272216796876	762.3054809570314	-2526.666015625	552.6363525390626	315.2892456054688	-2520.343017578125	560.9937133789064	315.1580200195313	-2581.524169921875	546.8751831054689	264.8150939941407	-2549.878662109375	544.6340942382814	267.6909790039063	-2610.13671875	472.3534545898439	108.1220397949219	-2539.279052734375	432.7355041503907	85.13927459716798	-2561.05078125	492.3616638183595	64.19692230224611	-2553.259033203125	437.5343017578126	119.9868240356446	-2624.92041015625	527.1077270507814	80.6168899536133	-2605.328369140625	462.6077270507814	145.5063629150391	-2672.44091796875	465.443084716797	133.5157012939453	-2706.1435546875	517.5399169921876	142.8613586425782	-2705.322509765625	535.8009033203126	62.9998245239258	-2654.14892578125	461.6072998046876	117.3827209472657	-2765.639404296875	518.5676879882814	120.1342391967774	-2770.8046875	557.2722778320314	68.49769592285158	-2730.535400390625	515.9248046875001	133.2578125	-2824.70947265625	267.6742248535157	844.0435180664065	-2265.439697265625	279.3636474609376	810.7052001953127	-2314.961181640625	277.2507629394532	759.7939453125001	-2251.455078125	302.0395507812501	728.8493652343751	-2297.553466796875	316.3538208007813	498.2832336425782	-1886.765625	306.0839538574219	447.7910156250001	-1902.010986328125	317.2289428710938	452.6389770507814	-1853.273315429688	322.3403930664063	399.7315063476564	-1873.447875976563	385.1870117187501	423.526824951172	-1730.298583984375	367.0521850585938	412.839080810547	-1687.097290039063	423.3667602539064	410.6472473144532	-1704.290161132813	425.4471740722657	199.2033081054688	-1759.9453125	326.5255432128907	224.2294464111329	-1699.134521484375	
189	0.7833333333333333	499.357147216797	1185.885131835938	-2274.275634765625	389.5766601562501	1187.920166015625	-2278.724609375	566.3770141601564	1114.769287109375	-2460.267578125	334.0677490234376	1101.681762695313	-2469.495849609375	634.9585571289064	825.8836669921877	-2444.274169921875	615.9969482421876	832.0827636718752	-2502.129638671875	619.8448486328126	754.7694091796876	-2487.47998046875	591.3375244140626	759.0457763671876	-2538.64453125	552.1529541015626	312.7085876464844	-2536.49853515625	560.3137207031251	313.1938476562501	-2597.650634765625	546.4849243164064	262.4937133789063	-2566.55078125	544.0177001953126	266.0732116699219	-2626.741943359375	473.3075256347657	105.2823104858399	-2557.112548828125	433.6184997558595	82.2879104614258	-2578.528076171875	493.5223388671876	61.66419601440431	-2572.10693359375	437.2648315429689	117.8973083496094	-2642.083740234375	527.2694702148439	78.97267913818361	-2624.487548828125	461.3511657714845	144.2418365478516	-2689.71875	463.7978820800782	132.8082122802735	-2723.607666015625	515.7286987304689	142.4078674316407	-2723.49267578125	535.4421997070314	62.07997512817384	-2673.690185546875	458.992645263672	117.3826141357422	-2783.11474609375	515.7296752929689	120.4611053466797	-2789.2861328125	555.6494140625001	68.68972778320314	-2750.232666015625	512.2183837890626	134.7329254150391	-2842.72119140625	267.2161865234376	841.7004394531252	-2281.415771484375	278.8118896484376	808.6435546875002	-2331.1318359375	276.3914794921876	757.2994995117189	-2267.99853515625	301.0560607910157	726.3829345703126	-2314.226318359375	316.1136474609376	503.2268066406251	-1900.630737304688	305.0152282714844	452.5694274902345	-1914.35400390625	316.6186523437501	458.4586486816407	-1865.922973632813	321.0190124511719	404.8887023925782	-1884.6552734375	385.276092529297	431.9973144531251	-1742.567138671875	367.6224365234376	422.5369873046876	-1698.902587890625	423.8483886718751	419.2928466796876	-1716.773803710938	422.6316833496095	206.5703582763672	-1767.3408203125	324.8486328125001	234.2004394531251	-1705.99072265625	
190	0.7875	499.6813964843751	1183.383056640625	-2288.37255859375	389.9119567871095	1185.8515625	-2292.89599609375	566.1541748046876	1111.936279296875	-2474.158935546875	334.7246398925782	1099.907592773438	-2482.675537109375	635.1379394531251	823.028991699219	-2456.860107421875	616.2658081054689	829.1820068359377	-2514.74755859375	619.4513549804689	751.9105224609376	-2499.72802734375	591.3204345703126	756.1694335937501	-2551.125244140625	551.4808349609376	310.0374755859376	-2551.90966796875	559.6256713867189	311.1929931640626	-2613.107177734375	545.9991455078126	260.1059265136719	-2582.417724609375	543.4632568359376	264.2485046386719	-2642.5673828125	474.3575744628907	101.5376052856446	-2575.710205078125	434.592987060547	79.31893920898439	-2594.789794921875	494.758758544922	59.12289810180665	-2589.859130859375	436.8782958984376	115.6463470458985	-2658.2060546875	527.4340209960939	77.2827606201172	-2642.634033203125	459.9475402832032	142.6623077392578	-2705.974609375	461.8733825683595	131.608871459961	-2739.951171875	513.7931518554689	141.6114807128907	-2740.723388671875	534.9965820312501	60.92340469360353	-2692.094970703125	456.2354125976564	116.8513641357422	-2799.528076171875	512.9121704101564	120.4878005981446	-2806.730712890625	553.8621826171876	68.4889373779297	-2768.84619140625	508.2714843750001	135.5569152832032	-2859.69287109375	266.7219848632813	839.1877441406252	-2297.287353515625	277.9801025390626	806.506042480469	-2347.3310546875	275.3921203613282	754.6041259765626	-2284.494140625	299.6914062500001	723.9729003906251	-2331.035888671875	315.7587280273438	507.9666748046876	-1915.065795898438	303.9488830566407	457.0402221679689	-1927.259155273438	316.0438232421876	464.1899414062501	-1879.002807617188	319.5136108398438	409.8981018066407	-1896.321411132813	385.4376525878907	440.456512451172	-1755.428833007813	368.0959167480469	432.2545166015626	-1711.34423828125	423.7699279785157	428.0249328613282	-1729.75927734375	419.6959228515626	213.8541259765626	-1774.839477539063	323.0993347167969	244.3596496582032	-1713.420288085938	
